HIERARCHY
ROOT SpineBase
{
  OFFSET 0.000000 0.000000 0.000000
  CHANNELS 6 Xposition Yposition Zposition Zrotation Xrotation Yrotation
  JOINT SpineMid
  {
    OFFSET 0.000000 29.779231 0.000000
    CHANNELS 3 Zrotation Xrotation Yrotation
    JOINT SpineShoulder
    {
      OFFSET 0.119121 22.122672 -0.671835
      CHANNELS 3 Zrotation Xrotation Yrotation
      JOINT Neck
      {
        OFFSET 0.080889 7.330600 -0.529703
        CHANNELS 3 Zrotation Xrotation Yrotation
        JOINT Head
        {
          OFFSET -5.641043 12.395462 -1.721616
          CHANNELS 3 Zrotation Xrotation Yrotation
          End Site
          {
            OFFSET 0 0 0
          }
        }
      }
      JOINT ShoulderLeft
      {
        OFFSET -14.220309 -5.533838 7.829170
        CHANNELS 3 Zrotation Xrotation Yrotation
        JOINT ElbowLeft
        {
          OFFSET -0.912923 -25.938397 1.356665
          CHANNELS 3 Zrotation Xrotation Yrotation
          JOINT WristLeft
          {
            OFFSET 1.674400 -18.741737 -6.428478
            CHANNELS 3 Zrotation Xrotation Yrotation
            JOINT HandLeft
            {
              OFFSET 0.454421 -5.089998 -0.387715
              CHANNELS 3 Zrotation Xrotation Yrotation
              JOINT HandTipLeft
              {
                OFFSET -0.915256 -5.809823 0.267473
                CHANNELS 3 Zrotation Xrotation Yrotation
                End Site
                {
                  OFFSET 0 0 0
                }
              }
              JOINT ThumbLeft
              {
                OFFSET 3.621308 1.203788 -3.345058
                CHANNELS 3 Zrotation Xrotation Yrotation
                End Site
                {
                  OFFSET 0 0 0
                }
              }
            }
          }
        }
      }
      JOINT ShoulderRight
      {
        OFFSET 13.621785 -2.099867 -8.914459
        CHANNELS 3 Zrotation Xrotation Yrotation
        JOINT ElbowRight
        {
          OFFSET 8.300098 -24.516335 -1.011732
          CHANNELS 3 Zrotation Xrotation Yrotation
          JOINT WristRight
          {
            OFFSET -2.680675 -18.238624 -5.277781
            CHANNELS 3 Zrotation Xrotation Yrotation
            JOINT HandRight
            {
              OFFSET -2.380876 -6.766874 -0.615901
              CHANNELS 3 Zrotation Xrotation Yrotation
              JOINT HandTipRight
              {
                OFFSET -1.359199 -6.449522 -0.671336
                CHANNELS 3 Zrotation Xrotation Yrotation
                End Site
                {
                  OFFSET 0 0 0
                }
              }
              JOINT ThumbRight
              {
                OFFSET -2.639274 1.496415 -1.498331
                CHANNELS 3 Zrotation Xrotation Yrotation
                End Site
                {
                  OFFSET 0 0 0
                }
              }
            }
          }
        }
      }
    }
  }
  JOINT HipLeft
  {
    OFFSET -6.133624 0.283489 -0.457380
    CHANNELS 3 Zrotation Xrotation Yrotation
    JOINT KneeLeft
    {
      OFFSET 5.758183 -29.239050 6.006518
      CHANNELS 3 Zrotation Xrotation Yrotation
      JOINT AnkleLeft
      {
        OFFSET 5.056151 -31.272480 3.068224
        CHANNELS 3 Zrotation Xrotation Yrotation
        JOINT FootLeft
        {
          OFFSET 5.687977 -7.744447 -4.618833
          CHANNELS 3 Zrotation Xrotation Yrotation
          End Site
          {
            OFFSET 0 0 0
          }
        }
      }
    }
  }
  JOINT HipRight
  {
    OFFSET 6.783306 1.552579 -6.065460
    CHANNELS 3 Zrotation Xrotation Yrotation
    JOINT KneeRight
    {
      OFFSET 7.614020 -25.056568 1.554546
      CHANNELS 3 Zrotation Xrotation Yrotation
      JOINT AnkleRight
      {
        OFFSET 2.732300 -35.797935 6.809575
        CHANNELS 3 Zrotation Xrotation Yrotation
        JOINT FootRight
        {
          OFFSET -3.837897 -7.183791 -3.164270
          CHANNELS 3 Zrotation Xrotation Yrotation
          End Site
          {
            OFFSET 0 0 0
          }
        }
      }
    }
  }
}
MOTION
Frames: 5
Frame Time: 0.033333
-32.408872 67.972488 341.751802 -0.000000 0.000000 23.468803 -0.000000 0.000000 -23.468803 -0.000000 0.000000 0.000000 -0.000000 0.000000 0.000000 0.000000 0.000000 0.000000 -0.000000 0.000000 0.000000 -0.000000 0.000000 0.000000 -0.000000 0.000000 0.000000 -0.000000 0.000000 0.000000 0.000000 0.000000 0.000000 0.000000 0.000000 0.000000 -0.000000 0.000000 0.000000 -0.000000 0.000000 0.000000 -0.000000 0.000000 0.000000 -0.000000 0.000000 0.000000 0.000000 0.000000 0.000000 0.000000 0.000000 0.000000 -0.000000 0.000000 -23.468803 -0.000000 0.000000 0.000000 -0.000000 0.000000 0.000000 0.000000 0.000000 0.000000 -0.000000 0.000000 -23.468803 -0.000000 0.000000 0.000000 -0.000000 0.000000 0.000000 0.000000 0.000000 0.000000
-32.323380 67.994095 341.767877 -0.141654 -0.089610 23.568452 0.165668 0.025495 -23.568600 -0.000000 0.000000 0.000000 -0.000000 0.000000 0.000000 0.000000 0.000000 0.000000 -0.000000 0.000000 0.000000 -0.000000 0.000000 0.000000 -1.469896 0.236148 0.136218 9.112287 4.017938 -0.711492 0.000000 0.000000 0.000000 0.000000 0.000000 0.000000 -0.000000 0.000000 0.000000 0.004388 -1.107419 0.161998 -0.328756 0.065414 0.237839 1.214423 -0.860673 -0.093641 0.000000 0.000000 0.000000 0.000000 0.000000 0.000000 0.165668 0.025495 -23.568600 -0.000000 0.000000 0.000000 -8.104965 8.205391 11.529102 0.000000 0.000000 0.000000 0.165668 0.025495 -23.568600 -0.000000 0.000000 0.000000 -0.128442 0.832998 -0.386054 0.000000 0.000000 0.000000
-32.248718 68.015419 341.785956 -0.275370 -0.172106 23.668772 0.321298 0.047080 -23.669317 -0.000000 0.000000 0.000000 -0.833599 -0.074728 -0.150818 0.000000 0.000000 0.000000 -0.000000 0.000000 0.000000 -0.680080 -1.218208 0.117694 -1.948167 1.692657 0.177570 15.749190 6.651388 -1.496848 0.000000 0.000000 0.000000 0.000000 0.000000 0.000000 -0.000000 0.000000 0.000000 -0.078445 -1.869814 0.297641 -0.576959 0.215622 0.354149 2.174499 -1.822544 -0.078362 0.000000 0.000000 0.000000 0.000000 0.000000 0.000000 0.321298 0.047080 -23.669317 -0.000000 0.000000 0.000000 -17.550926 14.353173 23.950257 0.000000 0.000000 0.000000 0.321298 0.047080 -23.669317 -0.000000 0.000000 0.000000 -0.161840 1.563158 -0.756537 0.000000 0.000000 0.000000
-32.184887 68.036459 341.806040 -0.401130 -0.247472 23.769649 0.466849 0.064795 -23.770779 -0.000000 0.000000 0.000000 -1.288398 -0.085567 -0.219959 0.000000 0.000000 0.000000 -0.790304 -0.691503 -0.021755 -0.269532 -1.097475 0.213506 -2.386359 2.499721 0.234229 20.266082 8.215396 -2.110305 0.000000 0.000000 0.000000 0.000000 0.000000 0.000000 -0.000000 0.000000 0.000000 -0.246893 -2.307214 0.407874 -0.751170 0.471935 0.344053 2.920403 -2.937407 0.066327 0.000000 0.000000 0.000000 0.000000 0.000000 0.000000 0.466849 0.064795 -23.770779 -0.000000 0.000000 0.000000 -26.411351 17.776404 35.128459 0.000000 0.000000 0.000000 0.466849 0.064795 -23.770779 -0.000000 0.000000 0.000000 -0.102221 2.190507 -1.113485 0.000000 0.000000 0.000000
-32.131886 68.057216 341.828129 -0.518918 -0.315695 23.870983 -0.218904 -0.110768 -23.890807 -0.014481 -0.099423 -0.025858 -1.080278 0.525287 -0.226564 0.000000 0.000000 0.000000 -0.268653 -0.232615 0.021954 -0.504717 -1.490221 0.301438 -2.435286 3.272266 0.247308 22.953833 8.957483 -2.460772 0.000000 0.000000 0.000000 0.000000 0.000000 0.000000 0.688340 0.605508 0.039438 -0.500095 -2.434541 0.494688 -0.853947 0.851313 0.204597 3.480443 -4.244940 0.353828 0.000000 0.000000 0.000000 0.000000 0.000000 0.000000 0.602284 0.078685 -23.872826 -0.000000 0.000000 0.000000 -33.447879 19.214597 43.857862 0.000000 0.000000 0.000000 0.602284 0.078685 -23.872826 -0.000000 0.000000 0.000000 0.048530 2.715241 -1.458425 0.000000 0.000000 0.000000
